<?xml version="1.0" encoding="iso-8859-1"?>
<!-- Uploaded to: SVG Repo, www.svgrepo.com, Generator: SVG Repo Mixer Tools -->
<svg fill="#000000" height="800px" width="800px" version="1.1" id="Capa_1" xmlns="http://www.w3.org/2000/svg" xmlns:xlink="http://www.w3.org/1999/xlink"
	 viewBox="0 0 469.995 469.995" xml:space="preserve">
<g>
	<path d="M120.882,242.229c-1.165-2.795-3.896-4.615-6.923-4.615s-5.759,1.82-6.923,4.615l-16.832,40.396
		c-0.965,2.314-0.708,4.959,0.683,7.045c1.391,2.087,3.732,3.34,6.24,3.34h33.663c2.508,0,4.85-1.253,6.24-3.34
		c1.391-2.086,1.647-4.729,0.683-7.045L120.882,242.229z M108.377,278.009l5.582-13.396l5.581,13.396H108.377z"/>
	<path d="M282.552,205.614h-62.136c-4.142,0-7.5,3.357-7.5,7.5v72.396c0,4.143,3.358,7.5,7.5,7.5h32.136c4.142,0,7.5-3.357,7.5-7.5
		s-3.358-7.5-7.5-7.5h-24.636v-57.396h54.636c15.824,0,28.698,12.87,28.698,28.69c0,15.828-12.874,28.705-28.698,28.705
		c-4.142,0-7.5,3.357-7.5,7.5s3.358,7.5,7.5,7.5c24.095,0,43.698-19.606,43.698-43.705
		C326.25,225.214,306.647,205.614,282.552,205.614z"/>
	<path d="M366.25,249.304c0-46.147-37.546-83.69-83.698-83.69h-82.136c-15.164,0-27.5,12.337-27.5,27.5v70l-33.574-80.577
		c-4.283-10.28-14.247-16.923-25.384-16.923s-21.101,6.643-25.384,16.923l-86.458,207.5c-5.832,13.996,0.81,30.129,14.806,35.962
		c3.409,1.421,6.993,2.132,10.579,2.132c3.546,0,7.094-0.696,10.472-2.087c6.792-2.798,12.087-8.072,14.912-14.853l32.576-78.182
		h56.996l32.568,78.162c4.283,10.292,14.25,16.942,25.393,16.942c15.164,0,27.5-12.337,27.5-27.5v-67.604h52.874l32.576,78.182
		c4.285,10.283,14.252,16.928,25.393,16.928c3.635,0,7.19-0.713,10.569-2.12c13.997-5.833,20.639-21.966,14.807-35.962
		l-30.905-74.173C354.016,300.04,366.25,275.596,366.25,249.304z M317.072,316.087l33.216,79.72
		c2.651,6.362-0.369,13.695-6.729,16.346c-1.541,0.642-3.156,0.967-4.801,0.967c-5.066,0-9.598-3.021-11.547-7.697l-34.533-82.879
		c-1.208-2.9-4.093-4.744-7.239-4.608c-0.927,0.039-1.918,0.075-2.887,0.075h-62.136c-4.142,0-7.5,3.357-7.5,7.5v75.104
		c0,6.893-5.607,12.5-12.5,12.5c-5.065,0-9.596-3.024-11.545-7.709l-34.492-82.78c-1.165-2.795-3.895-4.615-6.923-4.615H80.46
		c-3.028,0-5.759,1.82-6.923,4.615l-34.499,82.797c-1.284,3.083-3.691,5.48-6.778,6.752c-3.088,1.272-6.485,1.263-9.567-0.021
		c-6.363-2.651-9.382-9.984-6.731-16.347l39.655-95.174l-6.93-2.868l6.972,2.768l46.761-112.226
		c1.947-4.673,6.477-7.692,11.539-7.692s9.591,3.02,11.538,7.692l47.997,115.192c1.375,3.301,4.888,5.172,8.394,4.47
		c3.506-0.701,6.029-3.779,6.029-7.354v-107.5c0-6.893,5.607-12.5,12.5-12.5h82.136c37.88,0,68.698,30.814,68.698,68.69
		c0,23.299-11.718,44.836-31.346,57.611C316.871,308.889,315.681,312.747,317.072,316.087z"/>
	<path d="M442.495,93.739H418.12V69.364c0-15.163-12.336-27.5-27.5-27.5s-27.5,12.337-27.5,27.5v24.375h-24.375
		c-15.164,0-27.5,12.337-27.5,27.5s12.336,27.5,27.5,27.5h24.375v24.375c0,15.163,12.336,27.5,27.5,27.5s27.5-12.337,27.5-27.5
		v-24.375h24.375c15.164,0,27.5-12.337,27.5-27.5S457.658,93.739,442.495,93.739z M442.495,133.739H410.62
		c-4.142,0-7.5,3.357-7.5,7.5v31.875c0,6.893-5.607,12.5-12.5,12.5s-12.5-5.607-12.5-12.5v-31.875c0-4.143-3.358-7.5-7.5-7.5
		h-31.875c-6.893,0-12.5-5.607-12.5-12.5c0-6.893,5.607-12.5,12.5-12.5h31.875c4.142,0,7.5-3.357,7.5-7.5V69.364
		c0-6.893,5.607-12.5,12.5-12.5s12.5,5.607,12.5,12.5v31.875c0,4.143,3.358,7.5,7.5,7.5h31.875c6.893,0,12.5,5.607,12.5,12.5
		C454.995,128.132,449.387,133.739,442.495,133.739z"/>
</g>
</svg>